/* XPM */
static char *_cec0e94f10f43fcab85fdc30fc73d3f9T0RnA3jWxe46HHE[] = {
/* columns rows colors chars-per-pixel */
"64 64 173 2 ",
"   c None",
".  c #7B633F",
"X  c #7C633F",
"o  c #7D633F",
"O  c #7D643F",
"+  c #7E643F",
"@  c #093C67",
"#  c #093D67",
"$  c #0B3D66",
"%  c #0A3D67",
"&  c #0B3D67",
"*  c #0C3D66",
"=  c #0C3E66",
"-  c #0D3E66",
";  c #0C3E67",
":  c #0E3E66",
">  c #0E3F66",
",  c #0F3F66",
"<  c #103F66",
"1  c #20455F",
"2  c #23455E",
"3  c #23455F",
"4  c #26465D",
"5  c #24465E",
"6  c #24465F",
"7  c #2B485B",
"8  c #2D495B",
"9  c #2F495A",
"0  c #2E495B",
"q  c #394D57",
"w  c #3A4D56",
"e  c #3A4D57",
"r  c #3D4E55",
"t  c #3E4E55",
"y  c #3E4F55",
"u  c #3C4E56",
"i  c #304A5A",
"p  c #304C5E",
"a  c #344F5F",
"s  c #3D515B",
"d  c #174163",
"f  c #134064",
"g  c #134165",
"h  c #104066",
"j  c #114066",
"k  c #144165",
"l  c #164265",
"z  c #1B4361",
"x  c #1B4464",
"c  c #1D4564",
"v  c #214763",
"b  c #244760",
"n  c #204764",
"m  c #214764",
"M  c #264861",
"N  c #264963",
"B  c #274A62",
"V  c #274A63",
"C  c #284A63",
"Z  c #284B63",
"A  c #2B4C62",
"S  c #2C4C62",
"D  c #2D4D62",
"F  c #304E62",
"G  c #345061",
"H  c #355161",
"J  c #375161",
"K  c #395261",
"L  c #3A5360",
"P  c #3C5460",
"I  c #52554E",
"U  c #53554E",
"Y  c #53564E",
"T  c #58574C",
"R  c #59584C",
"E  c #465152",
"W  c #475152",
"Q  c #4B5657",
"!  c #405158",
"~  c #415259",
"^  c #42535B",
"/  c #43555C",
"(  c #43575F",
")  c #44565D",
"_  c #44575F",
"`  c #46585F",
"'  c #47585F",
"]  c #46595F",
"[  c #48595F",
"{  c #495A5F",
"}  c #4E5C5E",
"|  c #585C54",
" . c #515E5E",
".. c #605A49",
"X. c #645B48",
"o. c #57605D",
"O. c #58615D",
"+. c #766141",
"@. c #746042",
"#. c #756142",
"$. c #776445",
"%. c #786240",
"&. c #796240",
"*. c #7A6240",
"=. c #7A6340",
"-. c #7B6340",
";. c #7A6341",
":. c #7C6340",
">. c #7D6440",
",. c #7E6440",
"<. c #7F6540",
"1. c #7D6542",
"2. c #7C6A4B",
"3. c #626256",
"4. c #61655C",
"5. c #63665C",
"6. c #6B695A",
"7. c #6E6B5A",
"8. c #736D59",
"9. c #706C5A",
"0. c #726D5A",
"q. c #746E59",
"w. c #756E59",
"e. c #766E59",
"r. c #415660",
"t. c #425760",
"y. c None",
"u. c #816A46",
"i. c #836B46",
"p. c #826A47",
"a. c #836C48",
"s. c #836C49",
"d. c #836D49",
"f. c #816C4A",
"g. c #846D49",
"h. c #856D49",
"j. c #866E49",
"k. c #866E4A",
"l. c #806D4E",
"z. c #866F4C",
"x. c #87704B",
"c. c #88714D",
"v. c #88724E",
"b. c #89724E",
"n. c #88724F",
"m. c #89724F",
"M. c #8B744F",
"N. c #867555",
"B. c #857557",
"V. c #8A7450",
"C. c #8B7450",
"Z. c #8B7550",
"A. c #8B7652",
"S. c #8C7550",
"D. c #8D7753",
"F. c #897757",
"G. c #8A7857",
"H. c #8B7857",
"J. c #8B7957",
"K. c #8C7856",
"L. c #8E7A56",
"P. c #8F7A56",
"I. c #837558",
"U. c #847558",
"Y. c #857558",
"T. c #877758",
"R. c #917B55",
"E. c #927B55",
"W. c #907A56",
"Q. c #907B56",
"!. c #917B56",
"~. c #927B56",
"^. c #937C56",
/* pixels */
"    $ $ , $ @                                               $ , $ $                                                             ",
"    N Z b 5 b                                               Z N 2 2                                                             ",
", , 5.H.l.+...f ,                                     , $ H T.B.$.@.0 ; ,                                                       ",
", , 3.M.g.X X.f ,                                     , $ F V.x.,.-.0 @ ,                                                       ",
"$ , T ,.-.:.X.f ,                                     , $ 0 -.-.-.-.i ; $                                                       ",
"$ , T X -.:.X.f $ ,                                   , $ i -.-.-.-.i @ ,                                                       ",
", , T X -.:.X.f , $ , $ $ $ , $ , $ $ $ , $ : : , , $ , $ i -.-.-.-.i $ ,                                                       ",
"$ , T . -.:.X.f f ] O.o.o.o.o.o.o.o.o.o.o.o.O. . .O.O.D @ i -.-.-.-.0 @ ,                                                       ",
", , T O -.:.X.f f w.!.!.!.!.!.E.!.!.!.E.E.E.P.E.E.E.E.t.h 0 -.-.-.-.0 $ $                                                       ",
"$ , T O -.:.X.f k w.!.v.p.p.p.p.p.p.p.p.p.p.p.p.i.i.a.y # 0 %.-.-.-.0 @ ,                                                       ",
", , T O -.:.X.f f 7.T.2.@.@.+.@.@.@.@.@.@.@.@.@.#.#.#.u # 0 -.-.-.-.i , ,                                                       ",
"@ , T O -.:.X.f h n Z b 2 2 2 2 3 3 3 b 3 3 3 3 b 2 2 f h 0 -.-.-.-.0 @ ,                                                       ",
", , T . -.:.X.f $ , $ $ @ @ ; ; ; ; @ ; @ ; ; @ $ @ @ , @ i -.-.-.-.0 $ h                     y.                                ",
"$ , T X -.:.X.f ,                                     , $ 0 -.-.-.-.0 $ ,                           y.                    y.    ",
", , T X -.:.X.f $                                     , h 0 -.-.-.-.0 $ $                                                 y.    ",
", , T X -.X X.< ,                                     , @ 0 -.-.-.-.0 h ,                                       y.              ",
"@ , T X X :.X.< $                                     $ @ i -.-.-.-.i ; ,                                                       ",
"* , T X X X X.f , , $ $ $ $ $ @ $ $ , @ $ $ $ $ , f $ , @ i -.-.-.-.i @ ,                                                       ",
", , T X :.X X.f < P { t.{ ] { { { { ] { { { { ] t.t.{ Z @ i ,.-.-.-.i $ $                                                       ",
"@ , T X :.X X.f k w.^.P.!.!.!.!.!.!.!.!.!.!.!.!.E.E.E.] @ i -.-.-.-.0 $ ,                                                       ",
", , T O :.:.X.f k w.!.V.d.d.d.d.d.d.d.d.s.d.d.d.d.d.d.s h 0 -.-.-.-.0 $ $                                                       ",
"$ , T O -.:.X.f k 8.P.d.+.+.-.-.-.+.-.-.-.+.-.. -.%.-.u # 0 -.-.-.-.0 @ ,                                                       ",
", , T O -.:.X.f , Z H p 0 0 0 0 7 0 0 0 0 0 7 7 8 8 7 z # 0 %.-.-.-.i $ ,                                                       ",
"@ , T O -.:.X.f , $ $ @ $ $ @ $ @ $ @ ; @ ; @ $ $ $ $ $ h 0 -.-.-.-.i @ ,                                                       ",
", , T . -.:.X.f ,                                     , $ 0 -.-.-.-.i $ h                                                       ",
"$ , T X :.:.X.f ,                                     , h 0 -.-.-.-.0 @ $                                                       ",
", , T X :.:.X.f ,                                     , $ 0 -.-.-.-.0 $ h                                                       ",
", , T X X X X.f ,                                     $ $ 0 -.-.-.-.0 h $                                                       ",
"@ , T X X X X.f $ $ $ $ $ $ $ $ $ $ $ $ $ $ $ $ $ $ , $ $ 0 -.-.-.-.i ; ,                                                       ",
"* , T X :.X X.f < D K K K K K K K K K K K K K K K K P n $ i -.-.-.-.i @ $                                                       ",
", , T X -.:.X.f k 8.P.P.P.P.P.P.P.P.P.P.P.P.P.P.P.P.!.t.@ i -.-.-.-.i $ ,                                                       ",
"@ , T X -.:.X.< k w.!.V.x.z.z.z.z.z.z.z.z.z.z.z.z.z.x.^ @ 0 -.-.-.-.0 @ ,                                                       ",
", , T O -.:.X.f k w.E.g.-.-.-.,.-.-.-.,.-.-.-.-.-.-.. u h 0 %.-.-.-.0 h $                                                       ",
"$ , T O -.:.X.f h K t.s q q e e q q e e e e e e q q u 1 # 0 -.-.-.-.0 @ h                                                       ",
", , T O -.:.X.f , $ $ @ $ @ $ @ @ @ ; @ @ @ @ ; $ @ $ h $ 0 -.-.-.-.0 $ ,                                                       ",
", $ T O -.:.X.f ,                                     $ h 0 -.-.-.%.0 h ,                                                       ",
"$ @ T X -.:.X.f $                                     , $ 0 -.-.-.-.i @ $                                                       ",
", , T X -.:.X.f ,                                     , , 0 -.-.-.-.i $ ,                                                       ",
", , T X :.:.X.< ,                                     , $ 0 -.-.-.-.0 $ ,                                                       ",
", < T O X X X.< , $ $ $ $ $ $ , $ $ $ , $ $ $ $ $ $ $ $ $ 0 -.-.-.-.0 $ ,                                                       ",
"$ , T X X :.X.< h V A D D D D Z D Z Z D D Z D D D Z D x @ p -.-.-.-.0 $ $                                                       ",
"@ , T X X :.X.f f 7.T.J.T.T.F.P.H.H.H.H.H.H.H.F.H.H.P./ $ i -.-.-.-.i @ ,                       y.                              ",
", , T X :.X X.f k e.E.S.v.v.v.v.v.v.v.v.v.v.v.v.v.v.v./ $ 0 . -.-.-.i @ ,                             y.                        ",
", * T . :.X X.f k e.^.g.O O O O O O O O O O O O O O O u # 0 -.-.-.-.i ; ,                                                   y.  ",
", , T O :.:.X.f , r. .Q E E E E E E E E E E E E E E E 2 h i -.-.-.-.0 h $                                         y.            ",
"$ , T O -.:.X.f , $ $ $ h $ $ , $ $ $ , , $ , $ $ h $ h # 0 %.-.-.-.0 @ h                                                       ",
", , T O -.:.X.f , $                                   $ @ 0 -.-.-.-.0 $ $                                                       ",
", $ T O -.:.X.f ,                                     h $ i -.-.-.-.0 h ,                                                       ",
"$ @ T X -.:.X.f ,                                     , ; i -.-.-.-.i ; ,                                                       ",
", , T X :.:.X.f ,                                     , @ i -.-.-.-.i @ ,                                                       ",
", , T X :.:.X.f , $ $ $ $ $ $ $ , , @ ; $ $ $ $ $ , $ $ $ i -.-.-.-.i $ $                                                       ",
", < T O X X X.f , x m m m m m m n n n n m m m m m n n k $ 0 %.-.-.-.0 $ ,                                                       ",
"$ , T X X X X.f f 6.Y.I.Y.Y.Y.I.Y.I.Y.Y.Y.Y.Y.Y.Y.I.Y.r.$ 0 -.-.-.-.0 $ $                                                       ",
"@ , T X :.:.X.f f w.!.D.V.V.S.V.S.V.V.V.V.V.V.S.V.V.S._ $ i -.-.-.-.0 @ ,                                                       ",
", , T X -.:.X.f k w.E.z.-.,.,.,.,.,.,.,.,.,.:.:.,.,.,.u # i -.-.-.-.i $ ,                                                       ",
", * T . -.:.X.< f } 5.| I I T I I I I I T I I I T I I 8 @ 0 -.-.-.-.i @ ,                                                       ",
"$ , T O -.:.X.f ; ; $ , $ , $ , $ , $ , $ , $ , , $ , $ h 0 -.-.-.-.i $ h                                                       ",
", , T O -.:.X.f , , , , , $ , $ , , , $ , $ , , $ , $ , $ 0 %.-.-.-.0 @ $                                                       ",
"$ , T ,.-.:.X.f $                                     , @ 0 -.-.-.-.0 $ h                                                       ",
"$ , T ,.-.:.X.f ,                                     h $ i -.-.-.-.0 h $                                                       ",
", , T . -.:.X.f ,                                     , @ i ,.-.-.-.i @ ,                                                       ",
"$ , T X -.:.X.f ,                                     , ; i -.-.-.-.i ; $                                             y.        ",
", , T X -.:.X.f $                                     , @ i -.-.-.-.i @ ,                         y.        y.                  ",
"                                                                                                                                "
};
