/* XPM */
static char *_27c3ee90def4217d28dcfba3d516139rK37DPXLFjJqXwjz[] = {
/* columns rows colors chars-per-pixel */
"64 64 121 2 ",
"   c #78613F",
".  c black",
"X  c #183F5E",
"o  c #0E3D64",
"O  c #113E64",
"+  c #1E425E",
"@  c #20435D",
"#  c #2C485C",
"$  c #3B4E57",
"%  c #344B59",
"&  c #174163",
"*  c #1A4262",
"=  c #164369",
"-  c #1B476C",
";  c #1D496D",
":  c #234661",
">  c #214C6F",
",  c #314E62",
"<  c #375161",
"1  c #3E5460",
"2  c #244F71",
"3  c #2C5476",
"4  c black",
"5  c #2F5879",
"6  c #365975",
"7  c #355C7D",
"8  c #385F7E",
"9  c #56574E",
"0  c #424E51",
"q  c #445154",
"w  c #4A5252",
"e  c #455358",
"r  c #4B5A5E",
"t  c #555F5E",
"y  c #635946",
"u  c #6B5E47",
"i  c #645B49",
"p  c #6C5F48",
"a  c #56605E",
"s  c #5F6158",
"d  c #716045",
"f  c #7B6342",
"g  c #7F6846",
"h  c #6C6756",
"j  c #63665D",
"k  c #6B695C",
"l  c #746B55",
"z  c #7B6E54",
"x  c #706C5B",
"c  c #7C715A",
"v  c #435760",
"b  c #4B5B62",
"n  c #43637D",
"m  c #6E6D60",
"M  c #737D7F",
"N  c #816946",
"B  c #816A48",
"V  c #87714F",
"C  c #8A7552",
"Z  c #8E7956",
"A  c #847659",
"S  c #8F7B58",
"D  c #907B57",
"F  c #907B58",
"G  c #8C8577",
"H  c #908675",
"J  c #9B8A72",
"K  c #3C6181",
"L  c #406583",
"P  c #4B6E8B",
"I  c #52748F",
"U  c #547590",
"Y  c #5D7C96",
"T  c #65839B",
"R  c #6A879E",
"E  c #6C889F",
"W  c #6D89A0",
"Q  c #738EA4",
"!  c #7791A6",
"~  c #7F95A6",
"^  c #7D96AA",
"/  c #8098AC",
"(  c #879EB1",
")  c #899FB2",
"_  c #8DA3B5",
"`  c #90A3B2",
"'  c #9EB0BF",
"]  c #A3B4C2",
"[  c #B5C3CE",
"{  c #C7D1D9",
"}  c #C8D1DA",
"|  c #D6DDE3",
" . c #D9DFE5",
".. c #DAE0E5",
"X. c #DFE5E9",
"o. c #E1E6EA",
"O. c #E3E7EB",
"+. c black",
"@. c #EAEDF0",
"#. c #EBEEF0",
"$. c #EBEEF1",
"%. c #ECEFF1",
"&. c #EDEFF2",
"*. c #EEF0F2",
"=. c black",
"-. c black",
";. c black",
":. c black",
">. c black",
",. c black",
"<. c black",
"1. c black",
"2. c black",
"3. c black",
"4. c black",
"5. c black",
"6. c black",
"7. c black",
"8. c black",
"9. c black",
"0. c #FEFDFC",
/* pixels */
"4.4.4.4.7.4.4.=.=.=.=.=.=.=.<.4.9.4.9.4.4.4.4.4.4.4.4.4.4.4.4.4.4.4.4.4.4.4.4.4.4.4.4.4.4.4.4.4.4.4.4.=.:.:.:.:.=.:.5.5.5.4.4.4.",
"4.4.4.4.9.9.#.T P P P P P P [ 9.4.9.4.4.4.4.4.4.4.4.4.4.4.4.4.4.4.4.4.4.4.4.4.4.4.4.4.4.4.4.4.5.9.9.=.Q P P P P P P ] 5.9.5.4.4.",
"4.4.4.$.o.o.} 6 * * * + + . ` +.O.O.2.5.4.4.4.4.4.4.4.4.4.4.4.4.4.4.4.4.4.4.4.4.4.4.4.9.4.4.4.$.o.o.| n + * * & + + ! +.+.+.<.4.",
"4.4.4.^ 3 7 6 x c A z u u p b 5 5 K ..9.4.4.4.4.4.4.4.4.4.4.4.4.4.4.4.4.4.4.4.4.4.4.4.4.4.4.9._ 3 3 7 m c c z p u u r 3 5 8 } 5.",
"4.4.4.R o o * z C C V f f f $ o o > | 5.4.8.8.4.4.4.9.4.9.4.4.9.4.9.9.4.4.4.9.4.5.9.4.9.4.9.5.^ o o & l C C V f f f q o o - { 9.",
"4.4.8.R o o * u f f f f f f $ o o 2 ..5.8.9.8.9.9.9.9.4.9.9.9.9.9.9.4.9.9.9.9.9.9.9.9.9.9.9.9.^ o o & i f f f f f g q o o - } 9.",
"4.4.4.R o o + u f f f f f f $ o o - _ ] ] ] ' ' ] ] ] ] ] ] ] ] ] ] ' ] ] ] ] ] ' ] ] ] ] ] ] I o O + u f f f f f f q o & - } 8.",
"4.4.9.R o o * u f f f f f f $ o = o & o o & & o & o o o & o o o o = = o o o o & = o o o o & o = o O O i f f f f f f q o o ; } 8.",
"4.4.7.R O O O u f f f f f f % o & & r t t a s a a a a a a a a a t a a t a a a a a a a a a a a < O O * i f f f f f f e o o - { 5.",
"4.4.7.R o O : u f f f f f f $ o & * c S S S C G Z S S S S F F F S Z S S F F F S Z F F Z F S F b O O O i f f f f f   e o o - { 9.",
"4.4.7.R o O : d f f f f f f $ o & = c F S C g g B N B B B B B B B B g B B B B B B B N N g B B e O O O u f f f f f f w o = ; { 9.",
"4.4.4.T o O O u f f f f f g $ o = * x A A z d d d d d d d d d d d d d d d d d d d d d d d d f $ o O O y f f f f f f w o o ; } 9.",
"4.4.4.R O O O u f f f f f f % o = o * * @ + + + + @ + @ @ @ @ @ + + + + + + @ @ + + + + + + @ * = O & i f f f f f f e o o - { 8.",
"4.4.7.R O O @ u f f f f f f $ o & = 7 K K K K K K K K K K 7 K K K K K K K K K 7 K K K K K K K 2 o O & i f f f f f f e o O - } 9.",
"4.4.4.R O O O u f f f f f f $ O o > { *.=.$.$.$.*.+.*.*.$.#.$.$.*.$.$.$.*.$.#.$.*.$.$.$.*.#.*.! o = & u f f f f f f q o O - } 9.",
"4.4.7.R O O O u f f f d f g $ O & 2 | 8.8.8.8.8.8.8.8.8.4.8.8.9.9.8.4.8.9.8.5.5.9.5.5.5.5.8.5.^ o o & i f f f f f f q o O ; } 9.",
"4.4.4.R o O * u f f f f f f $ o o 2  .4.7.7.7.9.8.8.9.9.9.9.9.9.9.9.8.8.8.8.9.8.9.9.9.7.7.7.7.^ o O O i f f f f f f e o o - } 9.",
"4.4.7.R o o * u f f f d f f $ o o - ! _ ) ) ) ) ( ( / ` ` / _ ^ / _ / ( ) ) ) ( / ( ) ( ) ) ) P o o & u f f f f f f e o O - } 9.",
"4.4.7.R o O * u f f f f f f $ o O O O O o o o O o o O o = o o o * o o o o o o o O O o o o O O O O O & i f f f f f f 0 o O - } 9.",
"4.4.4.R o O * u f f f f f f $ O O & a j j j j j j j j j j j j j j j j j j j j j j j j j j j j < O O * i f f f f f f 0 o O ; } 9.",
"4.4.8.R o o + u f f f d f f < o & * c D F F Z F Z Z Z Z Z Z Z Z Z S Z S Z Z Z Z F Z D Z Z Z D r o O & i f f f f f f e o O - } 9.",
"4.4.4.R o o * u f f f f f f $ o = * c D Z C g g g g N g N g g g N g g g g g g g N N g N g N N e O O & i f f f f f g q o O - } 9.",
"4.4.4.R o o * u f f f f f f $ o o & k c z z u u u u u u u u u u y u u u u u u u u u u u u u u $ o O & i f f f f f f q o O - } 9.",
"4.4.4.R o O * u f f f f f f $ o o & & * * O . . . X . O . . . . . O + + . . . . . . . . X X X O = o & i f f f f f f e o o ; } 9.",
"4.4.8.R o o + u f f f f f f $ o = = P I I I I I I I I I I I I I I I I I I U I I I I I I I I I 5 O O * i f f f f f   e o o - { 9.",
"4.4.4.R o o & u f f f f f f $ o o 2 | :.<.:.<.<.<.=.<.<.:.<.<.<.<.=.<.<.<.=.<.<.=.<.<.<.-.<.4.^ O O O i f f f f f f e o o - { 9.",
"4.4.8.R o o * u f f f f f f $ O o 2 | 4.8.4.4.4.4.4.4.4.4.5.4.4.4.4.4.4.4.4.4.4.5.5.5.4.4.4.9.^ o O O u f f f f f f w o O ; } 9.",
"4.4.4.R o & * u f d f f f f $ o o 2 | 9.4.8.4.8.8.4.4.4.7.4.7.7.4.8.4.8.8.4.4.4.5.5.5.8.8.4.9./ o O O y f f f f f f w o O ; { 9.",
"4.4.4.R o o * u f f f f f f $ o & = Y E R E R R R E R R R W R R E R E E R E E E R R E R E R W K o O * i f f f f f f e o O - } 9.",
"4.4.8.R o * * u f f f f f f $ o = & o & O & o + O O + O O o O . O . O O O O . O . O O O O O O O O O * i f f f f f f e o O - } 9.",
"4.4.8.R o o * u f f f f f f % o o & j x k x x k x x x x x x x x x x x x x x x x x x x x x x x v o O & i f f f f f f q o O - } 9.",
"4.4.4.R o o * u f f f f f f $ o o = c S D D Z Z Z Z C Z Z C Z Z Z C C Z Z Z Z C D C D C D C Z r o O * i f f f f f f q o O ; } 9.",
"4.4.7.W O o O u f f f f f f < O o * A D S C f g f N g f N N g f f N f g f f g g N f N f N f g 0 o = & i f f f f f f e o o - { 9.",
"4.4.4.W o O : d f f f f f f $ O O * j x k h i 9 i 9 i i y 9 i y i i i i i i 9 y 9 y y i i i i $ o o & i f f d f f   e o o - { 9.",
"4.4.7.T o O O d f f f f f f $ O O O O O = . O + . . O . . o = o o O . O O O O . . o O O O O . O O & & i f f f f f f w o O - { 9.",
"4.4.8.T o O + u f f f f f f % o O - Y R R R E W R R R R R R R R R R R R E R R R E E E R R R R 8 o O & i f f f f f f q o O ; { 9.",
"4.4.7.E o O O u f f d f f f $ o O 2 | 8.4.4.4.4.4.4.4.4.8.8.8.8.7.7.7.7.4.8.4.8.8.4.8.4.4.9.9.^ o O & i f f f f f f e o O - } 9.",
"4.4.7.T o O + u f f f f f f $ o o 2  .8.4.4.4.4.3.4.4.4.<.8.<.8.3.7.3.<.8.4.8.4.4.4.4.4.4.5.9.^ o O * i f f f f f g q o O - } 9.",
"4.4.7.W o O O u f f f f f f $ o o 2 | <.=.<.<.:.<.<.<.<.:.<.<.<.<.=.<.<.<.<.=.<.=.1.1.=.<.<.2.^ o O & i f f f f f f q o O - } 9.",
"4.4.4.R o o + u f f f f g f $ o o = P I I I U I I I I I I I I I I I I I I I I I I U U I I I U 5 o O * i f f f f f f e o o ; } 9.",
"4.4.9.R o o * u f f f f d f $ o O O * + * & + & * * & + & + & * O O X * * * & * & * + & + & + & O O O i f f f f f   e o o - { 9.",
"4.4.4.W o o * u f f f f f f $ o & & k c c c c c c z c c c c c c A c c A c z z c c c c c c c c 1 O O * i f f f f f f e o o - { 9.",
"4.4.4.T o O * u f f f f f f $ o o = c D S Z C C Z C C C C C C C C C C C C Z Z C C C C C Z C C r O O O u f f f f f f w o O ; } 9.",
"4.4.8.W o O * u f f f f f f $ o & = c D F C f f f f N f f f g f f N f f N f f f g g f f f g f w O O O y f f f f f f w o O ; { 9.",
"4.4.4.R o o + u f f f d f f $ o O * a j j j 9 9 9 9 9 9 9 9 9 9 9 9 9 9 9 9 9 9 9 9 9 9 9 9 9 # O o & i f f f f f N e o O - } 9.",
"4.4.4.R o o * u f f f f f f $ o O O o o o o o o o o o o o o o o O O o o o o o o o o o o o o o * O O & i f f f f f f e o O - } 9.",
"4.4.4.R o O * u f f f f f f $ & o - ^ ) ` / / ( ) ) _ / / _ ) ) ( ) ) ) / ` / _ / _ / _ / _ / P o O & i f f f f f   q o O - } 9.",
"4.4.4.R o O * u f f f f f f $ o O 2 ..9.9.9.9.9.9.8.9.8.8.8.8.8.7.8.8.8.8.8.9.9.7.9.9.9.9.9.9./ o = & u f f f f f f e o o - } 9.",
"4.4.8.R o o + u f f f d   f $ o o 2 | 9.9.9.4.4.7.4.9.4.7.7.7.7.4.7.7.4.4.7.7.7.7.7.7.7.7.7.7./ o O O u f f f f f f 0 o o - } 9.",
"4.4.4.R o o & u f f f f f f $ o o 2 } *.$.$.$.$.$.$.$.%.$.%.$.#.%.#.$.#.%.%.%.*.#.#.#.%.#.$.*.! o o * i f f f f f f e o O - } 9.",
"4.4.8.R o o * u f f f f f f $ & O = K K K K K K K K K K K K K K K K K K K K 8 K K K K K 8 K L 2 O O & i f f f f f f 0 o O ; } 9.",
"4.4.4.R o & * u f f f f f f $ o O O : : : : : : : : : : : : : @ : : : : : : @ + : : : : : : @ O O O & i f f f f f f e o O ; } 9.",
"4.4.9.R o O * u f f f f f f $ o O * x A A A A A A A A A A A A A A A A A A A A A A A A A A A A r O O & i f f f f f f e o O - } 9.",
"4.4.4.R o o * u f d f f f f % o O & c F D D C C C C C C V C C C C C Z B C C V C C C V C C C C r O O & i f f f f f f e o O - } 9.",
"4.4.4.R o o * d f f f f f f $ = O : c Z D C f f f f f f   f f f f f f f f N f f f f f f f f f e o o & i f f f f f f q o O - } 9.",
"4.4.9.R o o * u f f f f f f $ o O O r t t t w e w w w w w w w w w w w w w w w w w w w w w w w # o = & i f f f f f f q o O ; } 9.",
"4.4.7.R O O O u f f f f f f $ o & o o o = o O o o o O O o o o O O O O O O O o o O O O O o o = O O O O i f f f f f f q o = - } 9.",
"4.4.7.R O O @ u f f f f d f $ o o ; _ ] ] ] ] ] ] ] ] ] ] ] ] ] ] ] ] ] ] ] ] ] ] ] ] ] ] ] ] U O O * u f f f f f f q o o - } 9.",
"4.4.7.R o O @ u f f f f f f $ o o 2 ..9.4.9.9.9.9.9.9.9.9.9.7.9.7.7.9.9.9.9.9.9.9.9.9.9.9.9.9./ O O O u f f f f f   w O O - } 9.",
"4.4.7.T o O X u f f f f f f $ o & 2 | 9.9.4.4.9.7.9.4.4.7.9.4.4.7.4.7.4.7.4.7.7.4.4.7.4.9.7.9./ o O O i f f   N f f q O O ; } 9.",
"4.4.4.R o o X u f f f f f f $ o o > | 9.4.4.4.4.9.4.4.4.4.4.4.4.4.4.4.4.7.4.4.4.4.4.4.4.4.4.9.^ o o + y f   f   f f q o O - { 7.",
"4.4.4.R o o X y         f f % o o 2 | 7.4.4.4.4.4.4.4.4.4.4.4.4.4.4.4.4.9.4.4.4.4.4.4.4.4.4.9.~ o o . y           f 0 o o - { 9.",
"4.4.4.` P P I H J J J J J J M P P Y X.7.4.4.4.4.4.4.4.4.4.4.4.4.4.4.4.4.4.4.4.4.4.4.4.4.4.4.4.' P P P G J J J J J J M P P U | 7.",
"4.4.4.<.-.-.-.-.-.-.-.-.=.<.=.%.=.=.4.4.4.4.4.4.4.4.4.4.4.4.4.4.4.4.4.4.4.4.4.4.4.4.4.4.4.4.4.<.=.=.=.=.-.-.-.-.=.:.<.=.=.=.4.4."
};
