/* XPM */
static char *_625e25920124ab89e512829ca6c51a02pOt3dzLXPwyS53W[] = {
/* columns rows colors chars-per-pixel */
"64 64 234 2 ",
"   c #6A440C",
".  c #734A13",
"X  c #7F5A26",
"o  c #7A5F35",
"O  c gray34",
"+  c #5D5D5C",
"@  c #665A55",
"#  c #615F5E",
"$  c #73634A",
"%  c #69635B",
"&  c #7A655A",
"*  c #5E5F61",
"=  c #645D69",
"-  c #656464",
";  c #6A6866",
":  c #6B6B6B",
">  c #796C63",
",  c #726D6C",
"<  c #7B7263",
"1  c #73706B",
"2  c #6B6F77",
"3  c #747373",
"4  c #7B7574",
"5  c #7C7876",
"6  c #7C7C7B",
"7  c #925B2C",
"8  c #876636",
"9  c #926630",
"0  c #A5733E",
"q  c #936943",
"w  c #897349",
"e  c #907354",
"r  c #B46A4B",
"t  c #A8764C",
"y  c #A46B55",
"u  c #B07457",
"i  c #877A6B",
"p  c #937F66",
"a  c #827D75",
"s  c #827D7C",
"d  c #B4776C",
"f  c #AB883B",
"g  c #C19E34",
"h  c #D2AC2E",
"j  c #CAA734",
"k  c #D5AB36",
"l  c #DCBC3E",
"z  c #85815E",
"x  c #A7865D",
"c  c #B98958",
"v  c #A69D5E",
"b  c #BCA656",
"n  c #97836A",
"m  c #89827B",
"M  c #9A8975",
"N  c #A48965",
"B  c #AB8B64",
"V  c #AF916C",
"C  c #B3936C",
"Z  c #B8966D",
"A  c #A38D74",
"S  c #A8987A",
"D  c #B39673",
"F  c #B59976",
"G  c #B99C79",
"H  c #B4A667",
"J  c #BBA57A",
"K  c #CBAC44",
"L  c #D7B645",
"P  c #D0AF53",
"I  c #CBB755",
"U  c #C79769",
"Y  c #D78C71",
"T  c #C49A76",
"R  c #E49E67",
"E  c #C4A37B",
"W  c #C9A67A",
"Q  c #D9A475",
"!  c #E9A37D",
"~  c #DAC450",
"^  c #E3C649",
"/  c #F9CD41",
"(  c #E6CB56",
")  c #E9D25A",
"_  c #D9CC75",
"`  c #EAD669",
"'  c #E9CC71",
"]  c #EEE16C",
"[  c #EFE275",
"{  c #F7E372",
"}  c #6D7984",
"|  c #7E7E81",
" . c #976E97",
".. c #896EA7",
"X. c #AF79A4",
"o. c #848383",
"O. c #8A8684",
"+. c #8D8986",
"@. c #8D8C8B",
"#. c #968D84",
"$. c #928D8C",
"%. c #9B9387",
"&. c #95918E",
"*. c #949392",
"=. c #9B9695",
"-. c #9D9996",
";. c #9D9B9A",
":. c #A79A84",
">. c #B59D86",
",. c #A79F95",
"<. c #A29D9C",
"1. c #BDA384",
"2. c #BAA789",
"3. c #A5A19E",
"4. c #A8A39D",
"5. c #B6A692",
"6. c #89A1BC",
"7. c #A5A3A2",
"8. c #AAA6A4",
"9. c #ACA8A7",
"0. c #ACABAA",
"q. c #BAADA3",
"w. c #B2AEAC",
"e. c #BEB2A6",
"r. c #B5B0AF",
"t. c #BBB5AD",
"y. c #B5B3B2",
"u. c #B9B6B4",
"i. c #BCB8B7",
"p. c #B7B8B8",
"a. c #BDBBBA",
"s. c #C58A9A",
"d. c #C8AB86",
"f. c #D8AE85",
"g. c #C9B086",
"h. c #D4B48C",
"j. c #DAB78D",
"k. c #C6AD94",
"l. c #C5B39C",
"z. c #CAB499",
"x. c #D2B693",
"c. c #D3B896",
"v. c #DDBD94",
"b. c #D3BB9B",
"n. c #DCBF9B",
"m. c #EDAB87",
"M. c #EAB589",
"N. c #E1BE95",
"B. c #D3A9A4",
"V. c #C9B9A7",
"C. c #D2BCA3",
"Z. c #D1BAAC",
"A. c #C5BBB2",
"S. c #C1BEBC",
"D. c #E0BEBF",
"F. c #DEC594",
"G. c #DFC199",
"H. c #EBD885",
"J. c #E0C097",
"K. c #E1C39C",
"L. c #EDDC99",
"P. c #EFE18B",
"I. c #F1E78C",
"U. c #F4E595",
"Y. c #CCC2AE",
"T. c #DBC3A4",
"R. c #DAC6AC",
"E. c #DBC7AC",
"W. c #C2C0B7",
"Q. c #CCC3B4",
"!. c #C3C0BE",
"~. c #CDC5BD",
"^. c #D3C6B4",
"/. c #D7CABA",
"(. c #D6CBBB",
"). c #D9D3BE",
"_. c #E3C6A2",
"`. c #E4C9A5",
"'. c #E6CDAC",
"]. c #E9CEAD",
"[. c #EAD2AE",
"{. c #F6D0AC",
"}. c #E5CEB3",
"|. c #EBD4B4",
" X c #E4D3B9",
".X c #ECD6B9",
"XX c #EED9BC",
"oX c #F2DAB9",
"OX c #F5EDAA",
"+X c #F6EAB4",
"@X c #9CA6C9",
"#X c #D2BFD8",
"$X c #B9D6F3",
"%X c #C4C3C3",
"&X c #C9C6C4",
"*X c #CCC9C6",
"=X c #C0C9CA",
"-X c #CCCBCA",
";X c #D7CCC3",
":X c #D1CECC",
">X c #DBD2C6",
",X c #D2D0CF",
"<X c #CFCFD0",
"1X c #D5D3D2",
"2X c #D9D6D4",
"3X c #DAD9D7",
"4X c #DDDCDB",
"5X c #E7D8C5",
"6X c #EADDCB",
"7X c #F1DEC3",
"8X c #E5DBD2",
"9X c #E0DFDE",
"0X c #EEE0CA",
"qX c #F2E0C5",
"wX c #F6E5CC",
"eX c #F7E8CD",
"rX c #F9F4CB",
"tX c #E8E2DB",
"yX c #F8EBD3",
"uX c #FAF3D6",
"iX c #E3E3E3",
"pX c #E9E6E4",
"aX c #ECE8E4",
"sX c #ECEBEB",
"dX c #F2EDE8",
"fX c #FAF5E2",
"gX c #FCF9E3",
"hX c #F5F1EE",
"jX c #FCFBEA",
"kX c #EBF3F8",
"lX c #F4F4F3",
"zX c #F8F5F3",
"xX c #FDFCF5",
"cX c #2D3037",
/* pixels */
"cXcXcXcXcXcXcXcXcXcXcXcXcXcXcXcXcXcXcXcXcXcXcXcXcXcXcXcXcXcXcXcXcXcXcXcXcXcXcXcXcXcXcXcXcXcXcXcXcXcXcXcXcXcXcXcXcXcXcXcXcXcXcXcX",
"cXcXcXcXcXcXcXcXcXcXcXcXcXcXcXcXcXcXcXcXcXcXcXcXcXcXcXcXcXcXcXcXcXcXcXcXcXcXcXcXcXcXcXcXcXcXcXcXcXcXcXcXcXcXcXcXcXcXcXcXcXcXcXcX",
"cXcXcXcXcXcXcXcXcXcXcXcXcXcXcXcXcXcXcXcXcXcXcXcXcXcXcXcXcXcXcXjXjXjXjXjXjXjXcXcXcXcXcXcXcXcXcXcXcXcXcXcXcXcXcXcXcXcXcXcXcXcXcXcX",
"cXcXcXcXcXcXcXcXcXcXcXcXcXcXcXcXcXcXcXcXcXcXcXcXcXcXcXcXxXgXrXOXI.I.I.I.I.U.rXgXxXcXcXcXcXcXcXcXcXcXcXcXcXcXcXcXcXcXcXcXcXcXcXcX",
"cXcXcXcXcXcXcXcXcXcXcXcXcXcXcXcXcXcXcXcXcXcXcXcXcXxXjXuX+XI.[ ] [ [ [ [ [ ] [ I.OXrXfXzXcXcXcXcXcXcXcXcXcXcXcXcXcXcXcXcXcXcXcXcX",
"cXcXcXcXcXcXcXcXcXcXcXcXcXcXcXcXcXcXcXcXcXcXcXcXjX+XP.` ) ) ` P.+XrXrXrX+XI.` ) ( ` [ +XfXxXcXcXcXcXcXcXcXcXcXcXcXcXcXcXcXcXcXcX",
"cXcXcXcXcXcXcXcXcXcXcXcXcXcXcXcXcXcXcXcXcXcXcXjX+X` ( ( ` H.rXgXxXcXcXcXxXgXrXU.' ( ~ ( L.fXcXcXcXcXcXcXcXcXcXcXcXcXcXcXcXcXcXcX",
"cXcXcXcXcXcXcXcXcXcXcXcXcXcXcXcXcXcXcXcXcXcXcXfXL.) ` L.qXtXiXiXiXiXiXiXiXiXiX>X XL.' ^ H.uXxXcXcXcXcXcXcXcXcXcXcXcXcXcXcXcXcXcX",
"cXcXcXcXcXcXcXcXcXcXcXcXcXcXcXcXcXcXcXcXcXcXcXuXP.) ] I.OXY.&.m | 6 | | | o.m *.2._ ) ~ H.tXcXcXcXcXcXcXcXcXcXcXcXcXcXcXcXcXcXcX",
"cXcXcXcXcXcXcXcXcXcXcXcXcXcXcXcXcXcXcXcXcXcXcXfXL.( ( ] ] _ H z 1 1 : ; % z v ~ ~ ~ l ~ H.uXcXcXcXcXcXcXcXcXcXcXcXcXcXcXcXcXcXcX",
"cXcXcXcXcXcXcXcXcXcXcXcXcXcXcXcXcXcXcXcXcXcXcXcXyXF.I j L ~ ~ I H J :.H b I ^ ^ l ^ j _ ).tXkXcXcXcXcXcXcXcXcXcXcXcXcXcXcXcXcXcX",
"cXcXcXcXcXcXcXcXcXcXcXcXcXcXcXcXcXcXcXcXcXcXcXcXlXW.z $ f g j j l l K j h h j f b J e.*.6 *.4XxXcXcXcXcXcXcXcXcXcXcXcXcXcXcXcXcX",
"cXcXcXcXcXcXcXcXcXcXcXcXcXcXpX4X9XsXcXcXcXcXkXpX1X0.2 1 m :.H I K k K K L I H S m -.0.*.2 6 p.pXcXcXcXcXcXcXcXcXcXcXcXcXcXcXcXcX",
"cXcXcXcXcXcXcXcXcXcXcXcXzX-X*.o.;.0.4XlXcXcXiX;.3 6 o.@.0.%X*X;X).).Q.Q.Y.Q.W.0.;.*.;.7.@.2 6 =XlXcXcXcXcXcXcXcXcXcXcXcXcXcXcXcX",
"cXcXcXcXcXcXcXcXcXcXcXsXa.s s r.-X0.9.3XcXsX!.6 - 6 *.7.p.<X4X4X1X=X0.;.3.p.%X=Xp.0.0.7.o.; : p.lXcXcXcXcXcXcXcXcXcXcXcXcXcXcXcX",
"cXcXcXcXcXcXcXcXcXxX9X7., 5 y.pXlX1Xw.1XcX-X| - | 7.a.=X=X<X1X1X=X0.*.o.o.*.0.y.y.0.;.*.6 ; : p.sXcXcXcXcXcXcXcXcXcXcXcXcXcXcXcX",
"cXcXcXcXcXcXcXcXcXlX7.4 4 =.4XxXlX2Xu.-XaX%X3 : *.=X=X=X*X=X=Xa.y.;.| 2 3 o.*.o.5 } o.O.3 = , S.lXcXcXcXcXcXcXcXcXcXcXcXcXcXcXcX",
"cXcXcXcXcXcXcXcXzX3X9.-.;.w.tXlX4X!.w.w.!.%X3 : *.=X*X*X=Xa.0.;.*.@.o.6 | o.o.6 : : 6 , = @ e A.hXcXcXcXcXcXcXcXcXcXcXcXcXcXcXcX",
"cXcXcXcXcXcXcXcXpX7.*.;.9.y.3X2Xy.y.<X%Xu.0.2 ; @.p.a.=XS.0.*.@.@.@.@.o.o.6 : * + O O = = & y A.hXcXcXcXcXcXcXcXcXcXcXcXcXcXcXcX",
"cXcXcXcXcXcXcXlX:X<.=.w.%Xu.3X&X-.9.2X-X<.6 # - o.7.0.y.y.0.;.=.*.@.@.| - * : 2 = = i 5.T r y Z.lXcXcXcXcXcXcXcXcXcXcXcXcXcXcXcX",
"cXcXcXcXcXcXcX-X=.m 5 w.2Xy.1X&X3.i.9XaXa.6 - + : | ;.0.w.p.=Xa.0.*.o.2 : } 6.6... .B.{.f.u y Z.hXcXcXcXcXcXcXcXcXcXcXcXcXcXcXcX",
"cXcXcXcXcXcXiXy.&.+.O.u.,X7.:X*Xw.~.1XiX1X9.s ; - 6 @.7.y.p.p.p.y.7.| * 3 6.$X@X.. .B.{.m.u y Z.hXcXcXcXcXcXcXcXcXcXcXcXcXcXcXcX",
"cXcXcXcXcXlX<.: 4 <.<.S.1X9.,X:Xy.&XS.2XsX1X-.3 3 *.0.p.%X0.*.*.7.0.@.;  .=XkX#XX.X.B.{.f.u y Z.hXcXcXcXcXcXcXcXcXcXcXcXcXcXcXcX",
"cXcXcXcXcXlX=.; s y.r.*X3Xy.!.i.u.*Xw.w.1X4X0.6 | 7.y.p.y.;.@.*.0.p.*.- a A.tXD.s.s.m.N.Q q q V.hXcXcXcXcXcXcXcXcXcXcXcXcXcXcXcX",
"cXcXcXcXxX3XO.1 *.&Xi.*X2X<.*.$.=.i.!.w.r.2X-X<.*.y.7.*.@.o.| o.;.0.o.- 1 G M.M.m.m.m.R 0 7 w Q.zXcXcXcXcXcXcXcXcXcXcXcXcXcXcXcX",
"cXcXcXcXpX;.| 5 <.9X-X-X:X=.o.$.=.9.,XS.7.u.i.8.0.a.p.0.;.o.2 | 7.0.@.- > C ! m.m.m.Y 9   o Y.lXcXcXcXcXcXcXcXcXcXcXcXcXcXcXcXcX",
"cXcXcXcXtX*.;.<.7.2X1X4X3X7.=.w.!.r.&X&XS.&Xr.r.p.y.p.%Xp.*.3 m 7.0.| * i d Y Y Y r 7 8 w S 8XxXcXcXcXcXcXcXcXcXcXcXcXcXcXcXcXcX",
"cXcXcXcX3X .7.A.0.~.:X4X3X8.8.:X2Xy.w.u.i.&X2X<Xp.7.7.y.0.@.: 3 | } 3 3 i r r r 7 .   :.0XxXxXcXcXcXcXcXcXcXcXcXcXcXcXcXcXcXcXcX",
"cXcXcXsXy.4 4.S.i.:X:X4X3X0.8.&X2X!.&Xu.7.S.2X*X7.;.=.<.*.2 + + + - 6 ;. .o         w Z.lXcXcXcXcXcXcXcXcXcXcXcXcXcXcXcXcXcXcXcX",
"cXcXcX:XO.m w.:X1XaX-X1X3X0.0.A.S.S.2X!.8.u.i.u.w.7.@.6 : + % < < 1 5 o.i $ o 8 9 9 l.dXcXcXcXcXcXcXcXcXcXcXcXcXcXcXcXcXcXcXcXcX",
"cXcXcX4X0.8.u.:XtXpX!.*X3Xr.i.S.w.u.2X&Xu.S.<.<.w.y.;.3 % & n F J 2.%. .: # i G T T z.8XxXcXcXcXcXcXcXcXcXcXcXcXcXcXcXcXcXcXcXcX",
"cXcXcX4X0.w.y.:XzXsXa.*X3Xu.%Xr.<.w.:X~.S.*X<.<.=X4Xp.$.n B G h.F.F.T.5.5 O * #.Z.].j.}.dXxXcXcXcXcXcXcXcXcXcXcXcXcXcXcXcXcXcXcX",
"cXcXcX<X-.<.<.S.zXsXa.&X4Xi.,Xy.+.<.y.9.r.=X;.<.S.!.w.t.V.k.d.j.v.v.j.J n % ; 7.tXjX+XU.{.5XdXzXcXcXcXcXcXcXcXcXcXcXcXcXcXcXcXcX",
"cXcXcX9X4.m  .0.pXpXy.S.4Xi.1Xy.O.&.$.@.4.a.4.w.S.8.w.:XtX XN.v.K.G.h.E D :.,.Q.tXyXU.{ ~ T ;XzXcXcXcXcXcXcXcXcXcXcXcXcXcXcXcXcX",
"cXcXcXcX9X@.+.9.,XtX0.i.4Xi.,Xi.;.w.&.O.=.4.4.W.A.9.r.&X~.Z.N.N.[.|.c.V F T.7XwXyX+X{ / k c T 5XzXcXcXcXcXcXcXcXcXcXcXcXcXcXcXcX",
"cXcXcXcXiXm ;.u.%XtXt.a.3Xa.:Xi.w.-X8.7.7.+.*.0.0.8.S.&Xt.5.j.K.XXqXc.V F R.eXyXyX+X! P 0 7 q Z.hXcXcXcXcXcXcXcXcXcXcXcXcXcXcXcX",
"cXcXcXcX4XO.u.S.0.4XS.y.*X-X!.w.u.,Xr.w.9. .m @.$.w.1X1XA.>.d.N..X7Xc.V F T.7XqXeX Xd.B 8 X n >XzXcXcXcXcXcXcXcXcXcXcXcXcXcXcXcX",
"cXcXcXcXiX*.*X&X7.2Xi.=.r.1Xw.;.y.&X3.=.=.*.;.o.O.r.1X%X<.A Z d. X0Xc.V C h.K.`.`.v.J V w x ^.lXcXcXcXcXcXcXcXcXcXcXcXcXcXcXcXcX",
"cXcXcXcXpX7.S.!.9.*X8.&.w.&X8.&.8.w.=.&.=.@.*.s , o.;.<.:.M B G R.XXb.D C W f.f.W U C 2.z.Y.tXcXcXcXcXcXcXcXcXcXcXcXcXcXcXcXcXcX",
"cXcXcXcXzX,X-Xa.8.u.=.=.r.r.w.-.$.3.-.<.-.5 6 , - # , m :.D N Z h.K.G.x.k.l.l.2.Z B D ^.hXxXcXcXcXcXcXcXcXcXcXcXcXcXcXcXcXcXcXcX",
"cXcXcXcXcXxXsXS.;.8.7.7.8.3.%Xr.$.<.8.<.$.1 ; ; * + > M F V N C W J.].}.(.a.r.1.V V l.tXxXcXcXcXcXcXcXcXcXcXcXcXcXcXcXcXcXcXcXcX",
"cXcXcXcXcXcXcX&X@.=.!.a.=.-.,X*X<.<.y.w.<. .3 % + % < N B N x C c.|..X^.t.4.n z x S >XhXcXcXcXcXcXcXcXcXcXcXcXcXcXcXcXcXcXcXcXcX",
"cXcXcXcXcXcXcXa.m 3.,X!.*.=.1X3Xw.3.i.r.0.!.7.| % % e x B B V 1.C.(.~.5.n q 8 8 t F 5XzXcXcXcXcXcXcXcXcXcXcXcXcXcXcXcXcXcXcXcXcX",
"cXcXcXcXcXcXcXu.a 8.0.=.+.-.,X:Xi.&X:Xy.0.-X!.4.i w N C E c.T.R.Q.S.w.n 8 0 c c B F /.dXcXcXcXcXcXcXcXcXcXcXcXcXcXcXcXcXcXcXcXcX",
"cXcXcXcXcXcXcXa. .+.a 5 #.<.r.i.S.&X4X-Xp.r.8.-.M x W h.`.qXwX5X~.r.:.N c Q M.W C B 2.5XzXcXcXcXcXcXcXcXcXcXcXcXcXcXcXcXcXcXcXcX",
"cXcXcXcXcXcXcXpXu.O.6 &.y.y.8.8.8.3.&X3XW.;.8.M n E v._..XqX7X}.T.b.d.W h.M.M.j.d.C V C.tXcXcXcXcXcXcXcXcXcXcXcXcXcXcXcXcXcXcXcX",
"cXcXcXcXcXcXcXcX9X<.i.*X&X*X*Xu.=.+.3.!.i.#.:.A F h.G.]..X|.|.`.K.v.v.v.G.J.v.v.j.d.Z F ^.hXcXcXcXcXcXcXcXcXcXcXcXcXcXcXcXcXcXcX",
"cXcXcXcXcXcXcXcX9X3.*X1XS.&XiX9Xy.$.;.8.-.$.M D W F.T.'.|.].}.`.K.v.N.`.].'.K.G.v.h.E V k.8XzXcXcXcXcXcXcXcXcXcXcXcXcXcXcXcXcXcX",
"cXcXcXcXcXcXcXcX4X;.9.0.=.9.9XsXS.-.y.8.+.s #.>.h.J._.].].'.].`.K.N.`.|.XXXX|._.v.v.h.G C k.tXcXcXcXcXcXcXcXcXcXcXcXcXcXcXcXcXcX",
"cXcXcXcXcXcXcXcX9X;.=.p.a.7.2X,X7.=.9.8.A n A A >.n..X7X|.|.].`.N.N.`.|.XX7XXX[.K.N.j.E D 1.5XtXzXcXcXcXcXcXcXcXcXcXcXcXcXcXcXcX",
"cXcXcXcXcXcXcXlX-X<.<.*X2X9.2X-Xr.%Xw.<.#.n 1.d.:.l.7XeXqX.X}.`.K.n.K.].|.7XqX|.K.N.v.v.j.g.1.2./.zXcXcXcXcXcXcXcXcXcXcXcXcXcXcX",
"cXcXcXcXcXcXcX2X<.8.<XhX2X3.-Xi.y.4Xu.<.o.p k.K.R.5XwXeXqX.X]._.n.N.K.'.|.7XeX|.K.K.|.XX|.v.T V k.8XxXcXcXcXcXcXcXcXcXcXcXcXcXcX",
"cXcXcXcXcXcXcXsX9XiXlXcX2X<.9.9.a.9Xy.<.$.S G.XXwXyXwX7XXX[.`.K.v.N.K.'.|.qXeX|.K.K..XwXXX_.x.G G V.aXcXcXcXcXcXcXcXcXcXcXcXcXcX",
"cXcXcXcXcXcXcXcXcXcXcXcX9X8.3.*XsX2X3.<.q./.7XwXeXeX7X.X].'.K.n.v.N.K.'.|.qXeX|.K.K..XwX6X;X&XA.u.&XsXcXcXcXcXcXcXcXcXcXcXcXcXcX",
"cXcXcXcXcXcXcXcXcXcXcXhX<X3.*.&XpXp.$.=.A.5XwXwXyXeX7XXX]._.N.v.v.N._.|.qXeXwXoXK.K.oXwX6X2X;X%X!.-XsXcXcXcXcXcXcXcXcXcXcXcXcXcX",
"cXcXcXcXcXcXcXcXcXcXzX*X=.*.*.-XpXa.$.#.q. X8X8XwXwXwXwX7X].N.G.v.N.].7XeXeXeX|.K.K.|.wX7XXX>X~.%X1XlXcXcXcXcXcXcXcXcXcXcXcXcXcX",
"cXcXcXcXcXcXcXcXcXcXcXp.+.9.4XlXlX<X*.&.q.;X-X:X8XqXwXwX6X'.N.v.v.K.}.5X6X6X6X}.T.T. XqX6X>X*XS.1XsXcXcXcXcXcXcXcXcXcXcXcXcXcXcX",
"cXcXcXcXcXcXcXcXcXzXiXa.y.sXcXcXcX9X8.0.%XS.a.!.(.5X5X>X;XR.v.N.K.R.^.S.!.!.!.!.&X*X:X:X*XS.=X-X9XzXcXcXcXcXcXcXcXcXcXcXcXcXcXcX",
"cXcXcXcXcXcXcXcXcXhXy.a.lXcXcXcXcXzXlXsX4X-X=Xa.S.~.;X*X&XY.C.T.R.~.a.p.y.y.u.p.S.=X=X%X%X*XiXlXcXcXcXcXcXcXcXcXcXcXcXcXcXcXcXcX",
"cXcXcXcXcXcXcXcXcXcXlXlXcXcXcXcXcXcXcXcXcXzXsX2X-X%Xa.!.a.a.S.a.!.a.p.9.;.;.7.y.a.a.a.%X-X2XsXcXcXcXcXcXcXcXcXcXcXcXcXcXcXcXcXcX",
"cXcXcXcXcXcXcXcXcXcXcXcXcXcXcXcXcXcXcXcXcXcXcXxXlXiX<X-X<X-X-X=X<X-Xa.y.0.0.0.p.=X<X<X9XlXlXcXcXcXcXcXcXcXcXcXcXcXcXcXcXcXcXcXcX",
"cXcXcXcXcXcXcXcXcXcXcXcXcXcXcXcXcXcXcXcXcXcXcXcXcXcXcXlXlXxXzXcXkXzXlXzXkXlXlXkXzXzXxXcXcXcXcXcXcXcXcXcXcXcXcXcXcXcXcXcXcXcXcXcX",
"cXcXcXcXcXcXcXcXcXcXcXcXcXcXcXcXcXcXcXcXcXcXcXcXcXcXcXcXcXcXcXcXcXcXcXcXcXcXcXcXcXcXcXcXcXcXcXcXcXcXcXcXcXcXcXcXcXcXcXcXcXcXcXcX",
"cXcXcXcXcXcXcXcXcXcXcXcXcXcXcXcXcXcXcXcXcXcXcXcXcXcXcXcXcXcXxXgXgXgXjXuXgXgXxXcXcXcXcXcXcXcXcXcXcXcXcXcXcXcXcXcXcXcXcXcXcXcXcXcX"
};
