/* XPM */
static char *_b819ed5a3334bfed2089c3dad1d0443IxT9N9GQBFbtcxVz[] = {
/* columns rows colors chars-per-pixel */
"64 64 167 2 ",
"   c #ffffff",
".  c #99CFE9",
"X  c #9ACFE9",
"o  c #9BCFE9",
"O  c #9AD0E9",
"+  c #9BD0E9",
"@  c #9CD0E9",
"#  c #9DD0E9",
"$  c #9ED0E9",
"%  c #9ED1E9",
"&  c #9FD1E9",
"*  c #9ED1EA",
"=  c #9FD1EA",
"-  c #A0D1E9",
";  c #A1D2E9",
":  c #A0D1EA",
">  c #A1D1EA",
",  c #A0D2EA",
"<  c #A1D2EA",
"1  c #A2D2EA",
"2  c #A3D2EA",
"3  c #A3D3EA",
"4  c #A7D3E9",
"5  c #A4D3EA",
"6  c #A5D3EA",
"7  c #A6D3EA",
"8  c #A5D4EA",
"9  c #A6D4EA",
"0  c #A7D4EA",
"q  c #A7D4EB",
"w  c #A6D5EB",
"e  c #A8D4EA",
"r  c #A8D5EA",
"t  c #A9D5EA",
"y  c #A9D5EB",
"u  c #AAD5EA",
"i  c #ABD6EA",
"p  c #ABD6EB",
"a  c #ACD6EB",
"s  c #ADD6EB",
"d  c #AED7EB",
"f  c #AFD7EB",
"g  c #B0D7EB",
"h  c #B0D8EB",
"j  c #B1D8EB",
"k  c #B2D8EB",
"l  c #B3D8EB",
"z  c #B2D9EB",
"x  c #B3D9EB",
"c  c #B4D9EB",
"v  c #B5D9EB",
"b  c #B6D9EB",
"n  c #B5DAEB",
"m  c #B6DAEB",
"M  c #B7DAEB",
"N  c #B1DAEC",
"B  c #B3DAEC",
"V  c #B4D9EC",
"C  c #B5D9EC",
"Z  c #B5DAEC",
"A  c #B6DAEC",
"S  c #B7DAEC",
"D  c #B7DCED",
"F  c #B8DBEC",
"G  c #B9DBEC",
"H  c #BADBEC",
"J  c #BADCEC",
"K  c #BBDCEC",
"L  c #BBDEEC",
"P  c #BCDCEC",
"I  c #BDDCEC",
"U  c #BCDDEC",
"Y  c #BDDDEC",
"T  c #BEDDEC",
"R  c #BFDDEC",
"E  c #BEDDED",
"W  c #BFDDED",
"Q  c #C0DEEC",
"!  c #C1DEEC",
"~  c #C0DEED",
"^  c #C1DEED",
"/  c #C2DFEC",
"(  c #C2DEED",
")  c #C3DEED",
"_  c #C3DFED",
"`  c #C4DFED",
"'  c #C5DFED",
"]  c #C5E0ED",
"[  c #C6E0ED",
"{  c #C7E0ED",
"}  c #C6E1ED",
"|  c #C7E1ED",
" . c #C7E1EE",
".. c #C7E4EE",
"X. c #C8E1ED",
"o. c #C8E2ED",
"O. c #C9E2ED",
"+. c #C8E1EE",
"@. c #C9E2EE",
"#. c #C9E3EE",
"$. c #CAE2EE",
"%. c #CAE3EE",
"&. c #CBE3EE",
"*. c #CCE3EE",
"=. c #CBE4EE",
"-. c #CBE6EF",
";. c #CCE4EE",
":. c #CDE4EE",
">. c #CCE5EE",
",. c #CDE5EE",
"<. c #CDE5EF",
"1. c #CEE5EE",
"2. c #CEE5EF",
"3. c #CEE6EE",
"4. c #CEE6EF",
"5. c #CFE6EF",
"6. c #CFE7EF",
"7. c #CFE8EF",
"8. c #D0E6EF",
"9. c #D0E7EF",
"0. c #D1E7EF",
"q. c #D1E8EF",
"w. c #D2E8EF",
"e. c #D3E8EF",
"r. c #D3E9EF",
"t. c #D2E8F0",
"y. c #D3E9F0",
"u. c #D4E9F0",
"i. c #D4EAF0",
"p. c #D5EAF0",
"a. c #D5EBF0",
"s. c #D6EBF0",
"d. c #D7EBF0",
"f. c #D7ECF0",
"g. c #D7ECF1",
"h. c #D8ECF0",
"j. c #D9EDF0",
"k. c #D8ECF1",
"l. c #D9ECF1",
"z. c #D9EDF1",
"x. c #DAEDF1",
"c. c #DAEEF1",
"v. c #DBEEF1",
"b. c #DBEFF1",
"n. c #DCEFF1",
"m. c #DDEFF1",
"M. c #DCEFF2",
"N. c #DDEFF2",
"B. c #DDF0F2",
"V. c #DEF0F2",
"C. c #DFF0F2",
"Z. c #DFF1F2",
"A. c #E0F1F2",
"S. c #E0F2F2",
"D. c #E1F2F2",
"F. c #E2F2F2",
"G. c #E2F3F2",
"H. c #E3F3F2",
"J. c #E3F3F3",
"K. c #E3F4F2",
"L. c #E3F4F3",
"P. c #E4F4F3",
"I. c #E5F4F3",
"U. c #E4F5F3",
"Y. c #E5F5F3",
"T. c #E6F5F3",
"R. c #E6F6F3",
/* pixels */
"                                                                                                                                ",
"                                                                                                                                ",
"                                                                                                                                ",
"                                                                                                                                ",
"                                                                                                                                ",
"                                                                                                                                ",
"                                                                                                                                ",
"                                                                                                                                ",
"                                                                                                                                ",
"                                                                                                                                ",
"                                                                                                                                ",
"                                                                                                                                ",
"                                                                                                                                ",
"Y.                                                R.                                                                          R.",
"Y.          Y.                                  J.R.R.                                                                    M.S.R.",
"Z.L.  Z.d.L.Y.Y.    Y.                          R.R.R.                                                                  S.O.8.c.",
"O.8.Z.>.>.S.5.t.U.R.U.                      R.R.R.B.t.B.                                                              R.Z.' { { ",
"{ ' t.{ d.c.O.O.J.R.S.S.                    J.R.U.B.{ 7.L.                J.  R.R.                                      S.5.{ { ",
"{ { { { t.7.' { a.c.O.5.P.R.                R.R.R.Z.{ { >.                c.=.a.x.                                    c.L.t.{ { ",
"O.O.{ { O.{ { { {  .{ =.S.R.            R.M.R.J.Z.a.{ { >.S.            U.8.{ { O.                                  S.d.Z.{ { ] ",
"c.J.c.#.{ { { { { { { { d.R.            S.d.R.c.#.7.{ { { 8.    R.      S.>.{ { O.c.                                B.a.c.{ { { ",
"R.R.c.{ >.c.a.{ { O.B...t.S.        R.R.c.O.8.O.{ { { #.#.O.c.R.R.R.R.R.R.5.{ >.O.Z.R.                              a.d.a.{ ] { ",
"U.Z.O.{ c.R.R.d.{ O.>.{ d.S.        R.d.8.O.' ' { ] ' c.R.d.a.R.R.S.Z.R.R.8.5.a.5.8.x.                              c.5.>.] { ] ",
"Z.a.{ O.J.U.Z.a.O.{ { ' O.M.R.      J.5.^ e a B b { @.Z.R.J.B.U.R.J.8.d.c.t.{ O.{ { @.                              U.7.{ { ] { ",
"@.{ #.t.R.M.{ { { { { { { =.Z.      S.>.b , O w 7.{ #.Z.U.Z.t.>.c.P.7.{ { { { 7.=.5.a.                      R.U.      =.{ { { =.",
"{ { a.Z.S.7.{ { { { { { { { a.      t.O.#.#.Z B 5.{ { a.c.{ { { O.5.{ { { { 5.U.Z.c.a.R.R.                  Z.>.>.  { { { { a.Z.",
"] { t.>.>.{ { ] ] ] { ] { { 5.      c.c.c.O.' F ] { { #.=.{ { { ' { { @.{ { a.L.U.t.#.7.d.          Y.Y.    a.{ t.>.{ { { { B.a.",
"{ { ] { ] { ] { T Z ] { { ' d.R.    c.R.d.O.' ' ] { { { { { { { ' { { t.B.{ a.5.5.@.{ ] 5.          Y.J.S.  =...=.{ =.5...{ =.{ ",
"n t 1 n T ' { ] ] 3 F ^ { { a.R.    S.P.e.' ' O.{ { { { ] { ^ ^ { { { =.t.{ { { ] { ] { 5.        Y.M.>.#.t.{ { { =.S.L.Z.>.{ T ",
"O O . . d { { { T * . a { { >.c.    R.S.>.' ' >.#.T ] { ] { J p J J { { { ..{ { { ] { ]           Y.c.O.{ { { { O.Z.Y.L.Z.t.{ 8 ",
". . o 1 F ' { { Z 3 8 t { { ] >.  Z.R.c.' ' O.x.L 1 T { { { b O O d O.t.=.] ] { { { { O.c.      c.S.d.' { { { { t.R.R.B.{ { ] 3 ",
". . o b g ^ { J 8 b B T { { ] >.S.5.d.>.O.' ' >.L * d { { ] p O . d r.=.] { ] L { { @.O.5.d.M.c.O.>.O.' { { 5.O.Z.R.a.=.{ J b * ",
". . * I { { ' ' I ^ e b M ' ' :.M.=.{ { { { ' O.^ 1 1 I ^ d o . . b O.' { { { d F ' O.{ { { x.>.' ' { { ' ' :.O.S.d.{ { ^ 8 1 . ",
"o . 1 M ^ ' I T O.' t . o 5 ^ 8.r.O.{ { { { ' ' ^ 1 . o * . o o O J I M ' { { g 1 1 g ' { { t.>.d.{ { { O.I M ' O.O.{ ' ^ 1 . . ",
". o * 1 * 1 * 5 ^ ^ e . . o I >.O.{ { { { { ' M g o o . . . o . * t * o b { T 8 d . l ' { ] { >.>.{ ] { M o X d ' O.T b n 5 . . ",
"o . . . . . o . 1 * . o . o n O.^ { ^ l d L ^ 1 1 . . o . . . o . . . . 5 B * . 1 o t ^ l 1 B ^ { ^ { ^ t X X X F ^ 1 . . * . o ",
". o . o . o o o . . . o . . e n 8 n b 5 o - g 1 . . o . o . o . o . o . . a * . o * . e 5 . o 1 b 8 l ^ * . X X F F o o . o . o ",
"o . o . o o o o . . o . o . . o * l F ^ n 5 . . . . . o . o . o . o . o o t o . o o o o . . o o 8 * d M * . X X t t . . o . o . ",
". o . o . o . o . o . o . o . o * T ' ^ I t o . o . o . o . o . o . o . o . o . . o . o . o o . O * d n # X X X 1 1 . o . o . o ",
"o . o . o . o . o . o . o . o . . b ' t o . o o . o . o . o . o . o . o . o . o o . o . o . . o O . . t 5 X X X . . o . o . o . ",
". o . o . o . o o . o . o . . o * 5 n . . . o . o . o . o . o . o . o . o . o . o . o . o . o . o o . o o o . o . . . o . o . o ",
"o . o . o . o . . o . o . o o 5 t d 1 . . o . o . o . o . o . o . o . o . o . o . o . o . o . o o o t 1 o . o . o . o . o . o . ",
". o . o . o . o o . o . o . o . . o o o o . o . o . o . o . o . o . o . o . o . o . o . o . o . . t 1 . o . . o . o . o . o . o ",
"o . o . o . o . . o . o . o . o . . o . . o . o . o . o . o . o . o . o . o . o . o . o . o . o . 5 o o . o o . o . o . o . o . ",
". o . o . o . o o . o . o . o . o . o . o . o . o . o . o . o . o . o . o . o . o . o . o . o . . . o . . o . o . o . o . o . o ",
"o . o . o . o . . o . o . o . o . o . o . o . o . o . o . o . o . o . o . o . o . o . o . o . o . o . o o . o . o . o . o . o . ",
". o . o . o . o o . o . o . o . o . o . o . o . o . o . o . o . o . o . o . o . o . o . o . o . o . o . . o . o . o . o . o . o ",
"o . o . o . o . . o . o . o . o . o . o . o . o . o . o . o . o . o . o . o . o . o . o . o . o . o . o o . o . o . o . o . o . ",
". o . o . o . o . o . o . o . o o . o . o . o . o . o . o . o . o . o . o . o . o . o . o . o . o . o . o . o . o . o . o . o . ",
"o . o . o . o . o . o . o . o . . o . o . o . o . o . o . o . o . o . o . o . o . o . o . o . o . o . o . o . o . o . o . o . o ",
". o . o . o . o . o . o . o . o o . o . o . o . o . o . o . o . o . o . o . o . o . o . o . o . o . o . o . o . o . o . o . o . ",
"o . o . o . o . o . o . o . o . . o . o . o . o . o . o . o . o . o . o . o . o . o . o . o . o . o . o . o . o . o . o . o . o ",
". o . o . o . o . o . o . o . o o . o . o . o . o . o . o . o . o . o . o . o . o . o . o . o . o . o . o . o . o . o . o . o . ",
"o . o . o . o . o . o . o . o . . o . o . o . o . o . o . o . o . o . o . o . o . o . o . o . o . o . o . o . o . o . o . o . o ",
". o . o . o . o . o . o . o . o o . o . o . o . o . o . o . o . o . o . o . o . o . o . o . o . o . o . o . o . o . o . o . o . ",
"o . o . o . o . o . o . o . o . . o . o . o . o . o . o . o . o . o . o . o . o . o . o . o . o . o . o . o . o . o . o . o . o ",
". o . o . o . o . o . o . o . o o . o . o . o . o . o . o . o . o . o . o . o . o . o . o . o . o . o . o . o . o . o . o . o . ",
"o . o . o . o . o . o . o . o . . o . o . o . o . o . o . o . o . o . o . o . o . o . o . o . o . o . o . o . o . o . o . o . o ",
". o . o . o . o . o . o . o . o o . o . o . o . o . o . o . o . o . o . o . o . o . o . o . o . o . o . o . o . o . o . o . o . ",
"o . o . o . o . o . o . o . o . . o . o . o . o . o . o . o . o . o . o . o . o . o . o . o . o . o . o . o . o . o . o . o . o ",
". o . o . o . o . o . o . o . o o . o . o . o . o . o . o . o . o . o . o . o . o . o . o . o . o . o . o . o . o . o . o . o . ",
"o . o . o . o . o . o . o . o . . o . o . o . o . o . o . o . o . o . o . o . o . o . o . o . o . o . o . o . o . o . o . o . o ",
". o . o . o . o . o . o . o . o o . o . o . o . o . o . o . o . o . o . o . o . o . o . o . o . o . o . o . o . o . o . o . o . ",
"o . o . o . o . o . o . o . o . . o . o . o . o . o . o . o . o . o . o . o . o . o . o . o . o . o . o . o . o . o . o . o . o "
};
