/* XPM */
static char *_7647ce1cb5440e7aeed427ac4228c09XO5JeZ3TvCZ4N2vm[] = {
/* columns rows colors chars-per-pixel */
"64 64 141 2 ",
"   c None",
".  c #D8553A",
"X  c #DD5A3E",
"o  c #E05E3F",
"O  c #E2643E",
"+  c #E4683E",
"@  c #E7753A",
"#  c #EC773F",
"$  c #EB7D3B",
"%  c #F07F3F",
"&  c #DF5C40",
"*  c #E15D41",
"=  c #E56244",
"-  c #E96547",
";  c #E56840",
":  c #ED6E46",
">  c #EB6749",
",  c #ED694A",
"<  c #ED7344",
"1  c #EF7B41",
"2  c #E98E2E",
"3  c #E89627",
"4  c #E89528",
"5  c #EC9A29",
"6  c #F29E2D",
"7  c #EA8434",
"8  c #EA8A31",
"9  c #F28F36",
"0  c #F0843D",
"q  c #F18B39",
"w  c #EE9533",
"e  c #EF9B3A",
"r  c #F29334",
"t  c #F39B31",
"y  c #F4A32C",
"u  c #F3A82F",
"i  c #EEAB32",
"p  c #F3AC32",
"a  c #F3A63C",
"s  c #EFB537",
"d  c #EEB639",
"f  c #ECBD3B",
"g  c #F3B237",
"h  c #F4B539",
"j  c #F4BB3C",
"k  c #EAC23E",
"l  c #F4C03F",
"z  c #F4BF40",
"x  c #F2B64B",
"c  c #E9C641",
"v  c #E9C943",
"b  c #EFCF49",
"n  c #F4C040",
"m  c #F4C343",
"M  c #F4C644",
"N  c #F4C144",
"B  c #F4C845",
"V  c #F4C946",
"C  c #F3CF4A",
"Z  c #F4CE4A",
"A  c #F4CF4A",
"S  c #F4CE4A",
"D  c #F0D04A",
"F  c #F1D14B",
"G  c #F1D24B",
"H  c #F4D04B",
"J  c #F3D34D",
"K  c #F2D24C",
"L  c #F4D14C",
"P  c #F4D24C",
"I  c #F4D34E",
"U  c #F4D44C",
"Y  c #F4D44D",
"T  c #F4D44E",
"R  c #F4D54E",
"E  c #F4D44F",
"W  c #F4D54F",
"Q  c #F4D34D",
"!  c #F0CA52",
"~  c #F4D451",
"^  c #F4D551",
"/  c #F4D553",
"(  c #F4D554",
")  c #F4D553",
"_  c #F4D659",
"`  c #F4D75E",
"'  c #F1C161",
"]  c #F3D763",
"[  c #F4D860",
"{  c #F5DA68",
"}  c #F4D96C",
"|  c #F4CE72",
" . c #F2D970",
".. c #F5DB70",
"X. c #F1D975",
"o. c #F2DA71",
"O. c #F1D678",
"+. c #F1DA79",
"@. c #F5DD78",
"#. c #F5DE7B",
"$. c #F1DA7D",
"%. c #F5DE7D",
"&. c #F3DD86",
"*. c #F5E083",
"=. c #F6E082",
"-. c #F6E189",
";. c #F6E28F",
":. c #F6E28A",
">. c #F6E494",
",. c #F7E59B",
"<. c #F7E69C",
"1. c #F7E69E",
"2. c #F7E79F",
"3. c #F7E79F",
"4. c #EED5A2",
"5. c #F1DEAA",
"6. c #F7E7A0",
"7. c #F7E7A1",
"8. c #F7E7A2",
"9. c #F7E7A2",
"0. c #F6E8A7",
"q. c #F5E7AC",
"w. c #EDE2B4",
"e. c #EDE3BF",
"r. c #EDE3BB",
"t. c #F4E7B1",
"y. c #F4E7B2",
"u. c #F3E8B7",
"i. c #F2E8BC",
"p. c #ECE3CC",
"a. c #F1E7C0",
"s. c #F1E8C6",
"d. c #EBE7D7",
"f. c #EBE7D6",
"g. c #EEE8D5",
"h. c #EBE5D9",
"j. c #EDE9DB",
"k. c #EAE7E0",
"l. c #EBE9E5",
"z. c #EAE9E4",
"x. c #EAE9E8",
/* pixels */
"                                            . .                                                                                 ",
"                                            . .                                                                                 ",
"                                          . . . .                                                                               ",
"                                          . . . .                                                                               ",
"                                          . . . .                                                                               ",
"                                          . . . .             .                                                                 ",
"                                            . . .           . . .                                                               ",
"                                            . .           . . . =                                                               ",
"                                                        . . . * ,                                                               ",
"                                                      . . . * > ,                 .                                             ",
"                                                      . . X > , , ,             . . .                                           ",
"                                                    . . . = , , , ,             . . .                                           ",
"                                                  . . . & > > , , ,             . . .                                           ",
"                                                  . . . - , , , , , ,           . .                                             ",
"                                                . . . X , , , , , , ,                                                           ",
"                                                . . . = , , , , , , , ,                                                         ",
"                                                . . . > , , , , , , , , ,                                                       ",
"                                              . . . * , , , , , , , , , ,                                                       ",
"                                              . . . - > , , , , , , , , , ,                                   .                 ",
"                                              . . X > , , , , , , , , , , , ,         , , ,                 . . .               ",
"                              . .           . . . & , , , , > < < , , , , , ,         , , , ,               . . .               ",
"                              . . .         . . . = , , , , # 4 7 , , , , , , ,     , , , , , ,             . . .               ",
"              .             . . . X         . . . = , > , # 2 3 r : , , , , , ,     , , , , , ,             . . .               ",
"              . .           . . . - ,       . . . > , > < 2 3 5 y < , , , , , ,     , , , , , , ,           . . .               ",
"              . .         . . . * , , ,     . . . > , , 7 3 3 y y 1 , , , , , , , , , , , , , , , ,         . . .               ",
"              . .         . . . = , , ,     . . X > , $ 3 3 y y y 9 , , , , , , , , , , , , , , , , ,         .                 ",
"              . .       . . . X , , , , , * . . X > : 2 3 5 y y y y < , , , , , , , , , , , , , , , ,                           ",
"                        . . . = , , , , , > * . * , $ 3 3 6 y y y y q , , , , , , , , , , , , , , , , ,                         ",
"                        . . . > , , , , , , > > > : 8 4 5 y y y y y y 1 , , , , , , , , , , , , , , , ,                         ",
"                      . . . X > , , , , , , , , , < 4 4 6 y y y y y y t < , , , , , , , , , , , , , , , ,                       ",
"                      . . . = , , , , , , , , , , 7 4 4 y y y y y y y y q , , , < 1 , , , , , , , , , , ,                       ",
"                      . . . - , , , , , $ < , , : 2 4 4 y y y y y y y y y 1 , , r y 9 , , , , , , , , , , ,                     ",
"                    . . . X , , , , , $ 3 8 , , < 4 3 5 y y y y y y y y y r , < 6 y y q , , , , , , , , , ,                     ",
"                    . . . & , , , , : 2 4 4 < , < 4 3 6 y y y y y y y y y y < 0 y y y y 0 , , , , , , , , ,                     ",
"                    . . . = , , , , 7 4 3 5 9 , @ 4 3 y y y y u p y y y y y q r y y y y t 1 , , , , , , , , ,                   ",
"                    . . . = , , , , 2 3 4 5 y 0 7 4 3 y y y u k k y y y y y y y y y y y y t , , , , , , , , ,                   ",
"                    . . . > , , , $ 4 4 3 y y 6 w 4 5 y y y f k c u y y y y y y y y y y y y 0 , , , , , , , ,                   ",
"                    . . . > , , , 8 3 4 5 y y y y y y y y d v v M g y y y y y y y y y y y y t : , , , , , , ,                   ",
"                    . . & > , , : 4 3 4 6 y y y y y y y u k v v C z y y y y y y y y y y y y y q , , , , , , , ,                 ",
"                  . . . & , , , $ 4 4 3 6 y y y y y y y f v v v ~ A p y y y y y y y y y y y y t : , , , , , , ,                 ",
"                  & . . & > , , 7 4 4 5 y y y y y y y y k v v D E E B y y y y y y y y y y y y y 1 , , , , , , ,                 ",
"                  . . . & > , , 2 4 4 5 y y y y u y y s v k v G E E E j y u j p y y y y y y y y r , , , , , , ,                 ",
"                  . . . * , , < 2 3 4 5 y y y p k u y d v v v W U E E H u h R V u y y y y y y y t < , , , , , ,                 ",
"                  . . . & , , < 4 4 4 y y y y f v f y f v v b W E E E E j m R E m u y y y y y y y 1 , , , , , ,                 ",
"                    . . & , , $ 4 3 3 y y y u k v v g k v v G E E U E E A H E U E h y y y y y y y q , , , , , ,                 ",
"                    . . & > , 7 3 3 5 y y y f v v v D V b D U E E E U E U E E U E H p y y y y y y 9 , , , , , ,                 ",
"                    . . & - , $ 4 4 5 y y u k k v D E E E U E E U E E E E E E E E U l y y y y y y r , , , , , ,                 ",
"                    . . . - , $ 4 3 3 y y i v v v G U U E E E ~ ` E E U E U U E E E H p y y y y y t , , , , , ,                 ",
"                    . . . - , $ 4 3 3 y y d k v v G W W U E E @.;.~ E E E E E E W W L j y y y y y t , , , , ,                   ",
"                    . . . = , $ 4 4 5 y y f v v b G W W E E { 3.1.` U E U U E E L W W M y y y y y t , , , , ,                   ",
"                      . . & , $ 4 4 5 y y k v v b W W W U ~ :.8.8.=.~ P U E E E W W W S u y y y y r , , , , ,                   ",
"                      . . X > < 4 4 4 y y k v v b W W ) _ ` ,.8.8.a.$.X.@.U E E U W W L p y y y y 9 , , , ,                     ",
"                        . . = : 2 4 4 y i k v k D W E @.:...3.3.t.l.a.a.h...L L L W L W g y y y y 0 , , , ,                     ",
"                        . . & , 8 3 4 5 u k v v D W ( >.3.>.q.8.s.x.z.z.x.e._ L W W L W h y y y t < , , ,                       ",
"                          . . = $ 4 3 5 y k v v D U { 7.6.q.j.i.f.x.x.x.x.l.&.W L W W U h t y y r , , , ,                       ",
"                          . . & < 2 3 3 y f v v D E %.7.6.s.x.k.z.x.x.x.x.x.y.~ W W L U p y y y 1 , , ,                         ",
"                            . . = $ 3 4 y d v v D ~ :.8.8.j.x.x.x.x.x.x.x.x.f.] W W W S u y y 9 , , ,                           ",
"                              . . - 7 3 5 i k v b ~ :.8.t.z.x.x.x.x.x.x.z.x.h. .L I W j y y t < , ,                             ",
"                                . . ; 8 3 6 f v v E :.8.u.l.x.x.z.x.x.x.x.x.k.X.L I H p y y 1 , ,                               ",
"                                    . + 2 4 i k v D =.7.u.x.x.x.x.x.x.x.x.x.d.] I L z y t 1 , ,                                 ",
"                                      . O 7 5 i k v } 6.t.z.l.x.x.l.x.x.x.x.w.( I z y t 1 ,                                     ",
"                                          o @ 8 i k G :.0.j.x.x.x.x.x.x.x.d.X.F z t q ,                                         ",
"                                                $ e d ! &.u.k.x.x.x.x.x.p.O.N a q 1                                             ",
"                                                      e x | 5.d.l.k.p.4.' a                                                     "
};
